<?xml version="1.0" standalone="no"?><!DOCTYPE svg PUBLIC "-//W3C//DTD SVG 1.1//EN" "http://www.w3.org/Graphics/SVG/1.1/DTD/svg11.dtd"><svg t="1636808880728" class="icon" viewBox="0 0 1024 1024" version="1.1" xmlns="http://www.w3.org/2000/svg" p-id="10729" xmlns:xlink="http://www.w3.org/1999/xlink" width="200" height="200"><defs><style type="text/css"></style></defs><path d="M725.333333 170.666667m-85.333333 0a85.333333 85.333333 0 1 0 170.666667 0 85.333333 85.333333 0 1 0-170.666667 0Z" p-id="10730" fill="#2c2c2c"></path><path d="M673.152 468.010667a85.632 85.632 0 0 0 91.648 35.413333l141.482667-35.370667-20.608-82.773333-141.482667 35.370667-58.837333-88.192a85.76 85.76 0 0 0-54.272-36.437334l-164.096-32.853333a85.248 85.248 0 0 0-93.056 45.525333l-70.741334 141.482667 76.330667 38.186667 70.741333-141.525334 83.925334 16.810667L317.184 725.333333H128v85.333334h189.184c29.781333 0 57.813333-15.872 73.173333-41.429334l81.834667-136.362666 220.544 44.117333 77.482667 232.490667 80.896-27.008-77.44-232.448a85.632 85.632 0 0 0-64.256-56.746667l-129.664-25.898667 75.605333-126.037333 17.792 26.666667z" p-id="10731" fill="#2c2c2c"></path></svg>